<?xml version="1.0" standalone="no"?>
<!DOCTYPE svg PUBLIC "-//W3C//DTD SVG 20010904//EN"
 "http://www.w3.org/TR/2001/REC-SVG-20010904/DTD/svg10.dtd">
<svg version="1.0" xmlns="http://www.w3.org/2000/svg"
 width="184.000000pt" height="184.000000pt" viewBox="0 0 184.000000 184.000000"
 preserveAspectRatio="xMidYMid meet">
<metadata>
Created by potrace 1.11, written by Peter Selinger 2001-2013
</metadata>
<g transform="translate(0.000000,184.000000) scale(0.100000,-0.100000)"
fill="#000000" stroke="none">
<path d="M835 1444 c-44 -8 -118 -28 -165 -45 -47 -16 -116 -39 -154 -50 -104
-30 -216 -76 -261 -107 -62 -43 -73 -114 -22 -146 12 -8 39 1 114 36 60 29
112 47 133 47 19 -1 62 12 95 27 57 27 67 28 205 29 91 0 161 -5 188 -13 54
-16 108 -63 122 -107 22 -66 -24 -155 -81 -155 -17 0 -35 -9 -46 -24 -20 -25
-77 -46 -127 -46 -28 0 -28 1 -22 38 3 22 17 78 31 126 14 47 25 93 25 101 0
21 -32 35 -79 35 -65 0 -89 -17 -106 -72 -40 -137 -88 -385 -108 -568 l-13
-115 -28 -3 -28 -3 7 58 c13 116 56 350 82 443 46 169 44 180 -38 180 -98 0
-103 -6 -148 -200 -48 -205 -91 -488 -91 -607 0 -45 4 -55 25 -69 46 -30 155
-1 155 41 0 9 42 14 148 18 155 6 231 21 313 62 25 13 77 31 115 40 201 46
312 160 302 311 -5 76 -35 121 -105 155 l-48 23 40 12 c66 19 141 61 180 101
60 61 70 88 70 185 0 80 -2 89 -30 130 -37 52 -108 102 -178 124 -74 24 -363
29 -472 8z m426 -165 c82 -41 103 -156 40 -213 -18 -17 -19 -15 -20 38 0 69
-21 120 -69 170 -34 35 -35 38 -12 31 14 -4 41 -16 61 -26z m-148 -470 c41
-21 77 -62 83 -95 7 -38 -9 -95 -34 -117 -16 -15 -17 -13 -19 28 -2 71 -39
123 -113 160 -31 16 -33 19 -15 26 30 11 73 10 98 -2z m-213 -97 c14 -10 33
-35 44 -56 16 -32 17 -44 8 -75 -21 -68 -30 -74 -116 -73 -43 0 -81 3 -84 6
-5 6 14 183 24 217 4 14 12 15 52 8 26 -5 58 -17 72 -27z"/>
</g>
</svg>
